<svg width="1002" height="1000" viewBox="0 0 1002 1000" fill="none" xmlns="http://www.w3.org/2000/svg">
<path d="M1.6667 1000H1001.67V-2.42224e-05H1.6667V1000Z" fill="white"/>
<path fill-rule="evenodd" clip-rule="evenodd" d="M382.673 435.399H323.941V450.083C309.01 436.616 289.926 429.892 266.675 429.892C254.686 429.892 243.243 432.274 232.355 437.048C221.463 441.819 212.349 447.999 205.006 455.587C197.666 463.176 191.911 471.122 187.758 479.444C183.59 487.764 180.722 496.208 179.127 504.77C177.534 513.343 176.746 520.927 176.746 527.535C176.746 541.483 179.127 554.574 183.901 566.808C188.667 579.043 195.154 589.503 203.357 598.194C211.557 606.886 221.157 613.548 232.171 618.198C243.178 622.852 254.686 625.175 266.675 625.175C289.926 625.175 309.01 618.447 323.941 604.982V682.07H382.673V435.399ZM323.941 527.535C323.941 537.566 321.309 546.562 316.046 554.514C310.786 562.468 304.667 567.91 297.695 570.844C290.721 573.786 284.419 575.25 278.793 575.25C269.486 575.25 261.17 572.743 253.829 567.731C246.482 562.712 241.41 556.408 238.597 548.823C235.782 541.232 234.373 534.143 234.373 527.535C234.373 520.927 235.782 513.89 238.597 506.424C241.41 498.964 246.482 492.66 253.829 487.52C261.17 482.384 269.486 479.811 278.793 479.811C291.025 479.811 301.61 484.34 310.539 493.396C319.47 502.448 323.941 513.831 323.941 527.535" fill="#1E293B"/>
<path fill-rule="evenodd" clip-rule="evenodd" d="M403.061 435.399V548.455C403.061 559.712 404.775 570.112 408.199 579.656C411.627 589.204 416.518 597.338 422.882 604.07C429.246 610.796 436.831 615.995 445.642 619.668C454.45 623.342 464.118 625.175 474.643 625.175C485.898 625.175 496.423 623.156 506.205 619.12C515.998 615.078 524.315 609.387 531.171 602.052V619.668H589.901V435.399H531.171V520.927C531.171 538.06 527.809 550.9 521.075 559.474C514.342 568.028 504.985 572.32 492.994 572.32C486.142 572.32 480.147 570.356 475.009 566.44C469.866 562.528 466.321 557.754 464.362 552.122C462.406 546.496 461.423 541.115 461.423 535.976V435.399H403.061Z" fill="#1E293B"/>
<path fill-rule="evenodd" clip-rule="evenodd" d="M610.291 619.668H669.02V435.399H610.291V619.668Z" fill="#3B82F6"/>
<path fill-rule="evenodd" clip-rule="evenodd" d="M689.413 619.668H748.144V376.664H689.413V619.668Z" fill="#3B82F6"/>
<path fill-rule="evenodd" clip-rule="evenodd" d="M768.527 619.668H827.256V317.932H768.527V619.668Z" fill="#3B82F6"/>
</svg>
